<svg id="Layer_1" data-name="Layer 1" xmlns="http://www.w3.org/2000/svg" viewBox="0 0 6380.79 877.5"><defs><style>.cls-1{font-size:12px;font-family:MyriadPro-Regular, Myriad Pro;}.cls-2{letter-spacing:-0.04em;}</style></defs><text class="cls-1" transform="translate(1769.57 266.23)">B<tspan class="cls-2" x="6.5" y="0">L</tspan><tspan x="11.7" y="0">OGGING</tspan></text><path d="M123.22,83.94h139V943.71h-139Zm82.16,748H475.09q106.11,0,154.71-34.89t48.61-98.16v-1.78q0-43.73-17.46-75.09t-55.11-48.19Q568.17,557,509.33,557H205.38V448.19h304q77.34,0,116.7-31.34T665.41,324q0-64.45-43.82-96.37T490.16,195.71H205.38V83.94h310.1Q612,83.94,677,112.33t97.22,80.43q32.16,52,32.17,124.17A179.51,179.51,0,0,1,786.56,400Q766.72,438.73,726,466.23T625,503.18q60.22,7.68,104,37t67.1,73q23.26,43.76,23.28,94.59v1.78q0,69.78-35.61,123t-102,82.2q-66.42,29-154.71,29H205.38Z" transform="translate(-123.22 -75.08)"/><path d="M1028.53,83.94h139.66V943.71H1028.53ZM1098.36,829h569.56V943.71H1098.36Z" transform="translate(-123.22 -75.08)"/><path d="M1950.91,913.26q-79.4-39.33-122.87-111.18t-43.47-166.45V392q0-94.59,43.47-166.45t122.87-111.16q79.41-39.33,183.47-39.33t183.47,39.33q79.41,39.33,122.88,111.16T2484.19,392V635.63q0,94.62-43.46,166.45T2317.85,913.26q-79.41,39.33-183.47,39.32T1950.91,913.26Zm292-103.47q46.9-24,72.56-68t25.68-102V387.88q0-57.93-25.68-102t-72.56-68q-46.89-24-108.5-23.95t-108.5,23.95q-46.89,24-72.56,68t-25.67,102V639.77q0,58,25.67,102t72.56,68q46.88,24,108.5,23.94T2242.88,809.79Z" transform="translate(-123.22 -75.08)"/><path d="M3363.49,480.71v150.2q0,95.79-43.13,168.82t-122.2,112.95q-79.08,39.92-183.12,39.9-105.43,0-185.18-37.54T2706.3,808.9q-43.83-68.58-43.81-159.07V396.16q0-95.79,43.12-168.53T2827.8,115q79.08-39.88,183.13-39.91,85.56,0,157.79,31.65t120.83,89.57q48.61,57.94,65.72,134.22H3204q-12.33-43.17-41.77-74.2A197.25,197.25,0,0,0,3093.08,209a214.65,214.65,0,0,0-82.15-16.27q-61.62,0-108.16,25.44t-71.87,71.25q-25.35,45.84-25.33,106.73V649.83q0,55.6,26,97.27t73.59,64.75q47.58,23.07,109.88,23.06,61.59,0,108.15-23.95a169,169,0,0,0,71.89-69.48q25.32-45.53,25.33-108.21V596H3018.46V480.71Z" transform="translate(-123.22 -75.08)"/><path d="M4242.78,480.71v150.2q0,95.79-43.13,168.82t-122.2,112.95q-79.08,39.92-183.12,39.9-105.43,0-185.18-37.54T3585.59,808.9q-43.83-68.58-43.81-159.07V396.16q0-95.79,43.12-168.53T3707.09,115q79.08-39.88,183.13-39.91,85.56,0,157.79,31.65t120.83,89.57q48.61,57.94,65.72,134.22H4083.28q-12.33-43.17-41.77-74.2A197.25,197.25,0,0,0,3972.37,209a214.65,214.65,0,0,0-82.15-16.27q-61.62,0-108.16,25.44t-71.88,71.25q-25.33,45.84-25.32,106.73V649.83q0,55.6,26,97.27t73.59,64.75q47.58,23.07,109.88,23.06,61.59,0,108.15-23.95a169,169,0,0,0,71.89-69.48q25.32-45.53,25.33-108.21V596H3897.75V480.71Z" transform="translate(-123.22 -75.08)"/><path d="M4595,943.71H4455.3V83.94H4595Z" transform="translate(-123.22 -75.08)"/><path d="M4841.53,83.94h126.65L5454.9,748.58l-16.42,15.36v-680h138.28V943.12h-128L4963.38,288.54l16.43-15.38v670H4841.53Z" transform="translate(-123.22 -75.08)"/><path d="M6504,480.71v150.2q0,95.79-43.13,168.82t-122.2,112.95q-79.08,39.92-183.13,39.9-105.42,0-185.17-37.54T5846.82,808.9Q5803,740.32,5803,649.83V396.16q0-95.79,43.12-168.53T5968.32,115q79.08-39.88,183.12-39.91,85.57,0,157.8,31.65t120.83,89.57q48.6,57.94,65.72,134.22H6344.51q-12.33-43.17-41.77-74.2A197.25,197.25,0,0,0,6233.6,209a214.66,214.66,0,0,0-82.16-16.27q-61.6,0-108.15,25.44t-71.88,71.25q-25.33,45.84-25.33,106.73V649.83q0,55.6,26,97.27t73.6,64.75q47.58,23.07,109.87,23.06,61.6,0,108.16-23.95a169,169,0,0,0,71.89-69.48q25.31-45.53,25.33-108.21V596H6159V480.71Z" transform="translate(-123.22 -75.08)"/></svg>