<svg id="Layer_1" data-name="Layer 1" xmlns="http://www.w3.org/2000/svg" viewBox="0 0 6285.06 945"><defs><style>.cls-1{font-size:12px;font-family:MyriadPro-Regular, Myriad Pro;}.cls-2{letter-spacing:-0.04em;}</style></defs><text class="cls-1" transform="translate(1786.62 306.18)">B<tspan class="cls-2" x="6.5" y="0">L</tspan><tspan x="11.7" y="0">OGGING</tspan></text><path d="M106.17,146.81H226.5V961.14H106.17Zm58.39,0H657.09V255.47H164.56Zm0,355.65H592.2V611.11H164.56Zm0,350H657.09V961.14H164.56Z" transform="translate(-106.17 -35.14)"/><path d="M1061.48,146.81h102.64l316.16,814.33H1350.51L1112.79,304.19l-237.7,657H745.32ZM891,673.83h451.24V782.49H891Z" transform="translate(-106.17 -35.14)"/><path d="M1609.78,146.25H1730.1V961.14H1609.78Zm52.5,361.8h292.56q34.2,0,60.75-15.67t41-44.53Q2071,419,2071,381.49t-14.45-66.38q-14.46-28.83-40.7-44.51t-61.05-15.69H1662.28V146.25h287.84q74.3,0,130.64,29.13t87.3,82.61q31,53.47,31,123.5T2167.76,505q-31.26,53.49-87.58,82.61t-130.06,29.13H1662.28Zm233.57,83.45,119.74-25.76L2235,961.14H2092.28Z" transform="translate(-106.17 -35.14)"/><path d="M2397,146.81h109.12l419.38,629.52-14.16,14.55V146.81h119.16V960.58H2920.14L2502,340.6,2516.11,326V960.58H2397Z" transform="translate(-106.17 -35.14)"/><path d="M3753.34,585.22q0,136.69-6.8,193.55T3704,882.67q-35.72,47.07-96.53,72.27t-141.67,25.2q-76.76,0-137.86-23.79t-98.28-71.43q-37.2-47.62-44.28-103.64t-7.08-196.06V430.06q0-136.68,6.78-193.54t42.52-103.91q35.71-47,96.51-72.25t141.69-25.22q76.74,0,137.84,23.81t98.3,71.43Q3739.15,178,3746.25,234t7.09,196.06Zm-248-298.34q0-63.37-7.48-81.07T3467,188.14q-19.76,0-30.23,14.31t-10.47,84.43V711q0,79.1,6.88,97.61t32,18.51q25.73,0,32.9-21.31t7.19-101.55Z" transform="translate(-106.17 -35.14)"/><path d="M4400.16,54.14v907h-217l-129-412.33V961.14h-208v-907h207l139,408.41V54.14Z" transform="translate(-106.17 -35.14)"/><path d="M4748.08,54.14v726h150v181h-398v-907Z" transform="translate(-106.17 -35.14)"/><path d="M5207.42,54.14v907h-248v-907Z" transform="translate(-106.17 -35.14)"/><path d="M5861.31,54.14v907h-217l-129-412.33V961.14h-208v-907h207l139,408.41V54.14Z" transform="translate(-106.17 -35.14)"/><path d="M5961.23,54.14h414v181h-166v172h155v173h-155v200h182v181h-430Z" transform="translate(-106.17 -35.14)"/></svg>