<svg id="Layer_1" data-name="Layer 1" xmlns="http://www.w3.org/2000/svg" viewBox="0 0 6391.22 877.5"><defs><style>.cls-1{font-size:12px;font-family:MyriadPro-Regular, Myriad Pro;}.cls-2{letter-spacing:-0.04em;}</style></defs><text class="cls-1" transform="translate(1788.99 266.23)">B<tspan class="cls-2" x="6.5" y="0">L</tspan><tspan x="11.7" y="0">OGGING</tspan></text><path d="M103.8,83.94H221.44V943.71H103.8Zm57.67,0h470V198.66h-470Zm0,383.18H568V581.83H161.47Z" transform="translate(-103.8 -75.08)"/><path d="M775.62,83.35H893.26V943.71H775.62Zm51.32,382h286q33.45,0,59.39-16.54t40.08-47q14.13-30.43,14.14-70.06t-14.14-70.08q-14.13-30.45-39.78-47T1113,198.07h-286V83.35h281.41q72.66,0,127.72,30.75t85.34,87.22q30.28,56.49,30.28,130.39t-30.56,130.37q-30.56,56.49-85.64,87.22t-127.14,30.75H826.94Zm228.36,88.11,117.07-27.2,214.51,417.47H1247.32Z" transform="translate(-103.8 -75.08)"/><path d="M1545.47,83.94h117.64V943.71H1545.47Zm57.09,0h481.52V198.66H1602.56Zm0,375.49h418.08V574.15H1602.56Zm0,369.56h481.52V943.71H1602.56Z" transform="translate(-103.8 -75.08)"/><path d="M2251.31,83.94H2369V943.71H2251.31Zm57.09,0h481.52V198.66H2308.4Zm0,375.49h418.08V574.15H2308.4Zm0,369.56h481.52V943.71H2308.4Z" transform="translate(-103.8 -75.08)"/><path d="M2957.15,83.94h117.64V943.71H2957.15ZM3016,829h479.78V943.71H3016Z" transform="translate(-103.8 -75.08)"/><path d="M3874.05,83.94H3974.4l309.08,859.77H4156.62L3924.23,250.1l-232.4,693.61H3565ZM3707.4,640.37h441.14V755.08H3707.4Z" transform="translate(-103.8 -75.08)"/><path d="M4410.36,83.94H4517l410,664.64-13.84,15.36v-680h116.49V943.12H4921.86L4513,288.54l13.84-15.38v670H4410.36Z" transform="translate(-103.8 -75.08)"/><path d="M5358.69,913q-66-39.62-102.36-112.36T5220,632.08V396.16q0-95.79,36.33-168.53T5358.69,115q66-39.88,153.11-39.91,72.07,0,132.62,31.65t101.21,89.57q40.64,57.94,55.08,134.22H5680.17a193.58,193.58,0,0,0-36.62-71.84Q5617.88,227,5583.3,209.9t-71.5-17.16q-51.33,0-90,25.44t-60,71.25q-21.33,45.84-21.33,106.73V632.08q0,60.33,21.33,106.44t60,71.27q38.63,25.13,90,25.12a168,168,0,0,0,71.78-16q34.32-16,60-47.29t36.62-74.52h120.54q-14.45,76.29-55.38,134.24t-101.48,89.57q-60.57,31.65-132.05,31.64Q5424.71,952.58,5358.69,913Z" transform="translate(-103.8 -75.08)"/><path d="M5956.4,83.94H6074V943.71H5956.4Zm57.1,0H6495V198.66H6013.5Zm0,375.49h418.08V574.15H6013.5Zm0,369.56H6495V943.71H6013.5Z" transform="translate(-103.8 -75.08)"/></svg>