<svg id="Layer_1" data-name="Layer 1" xmlns="http://www.w3.org/2000/svg" viewBox="0 0 6323.27 877.5"><defs><style>.cls-1{font-size:12px;font-family:MyriadPro-Regular, Myriad Pro;}.cls-2{letter-spacing:-0.04em;}</style></defs><text class="cls-1" transform="translate(1769.57 266.23)">B<tspan class="cls-2" x="6.5" y="0">L</tspan><tspan x="11.7" y="0">OGGING</tspan></text><path d="M838.59,83.94H969.36V943.71H833.12V299.77L840,337.62,594.89,824.27h-97.2L252.61,349.44l6.84-49.67V943.71H123.22V83.94H254L546.28,651.6Z" transform="translate(-123.22 -75.08)"/><path d="M1362,913.26q-79.41-39.33-122.87-111.18t-43.47-166.45V392q0-94.59,43.47-166.45T1362,114.41q79.41-39.33,183.47-39.33t183.47,39.33q79.41,39.33,122.87,111.16T1895.26,392V635.63q0,94.62-43.47,166.45T1728.92,913.26q-79.41,39.33-183.47,39.32T1362,913.26Zm292-103.47q46.89-24,72.56-68t25.67-102V387.88q0-57.93-25.67-102t-72.56-68q-46.9-24-108.5-23.95T1437,217.88q-46.9,24-72.56,68t-25.68,102V639.77q0,58,25.68,102t72.56,68q46.88,24,108.5,23.94T1654,809.79Z" transform="translate(-123.22 -75.08)"/><path d="M2107.78,83.94h126.66l486.72,664.64-16.42,15.36v-680H2843V943.12H2715L2229.64,288.54l16.43-15.38v670H2107.78Z" transform="translate(-123.22 -75.08)"/><path d="M3089.79,83.94h139.66V943.71H3089.79Zm67.79,0h571.61V198.66H3157.58Zm0,375.49h496.31V574.15H3157.58Zm0,369.56h571.61V943.71H3157.58Z" transform="translate(-123.22 -75.08)"/><path d="M3818.48,83.94h702.36V198.66H3818.48Zm281.36,70.38h139.64V943.71H4099.84Z" transform="translate(-123.22 -75.08)"/><path d="M4797.65,943.71H4658V83.94h139.65Z" transform="translate(-123.22 -75.08)"/><path d="M5608.32,188,5175,829h447V943.71H5003.17V839.63l436.75-641H5015.48V83.94h592.84Z" transform="translate(-123.22 -75.08)"/><path d="M5807.1,83.94h139.66V943.71H5807.1Zm67.78,0h571.61V198.66H5874.88Zm0,375.49H6371.2V574.15H5874.88Zm0,369.56h571.61V943.71H5874.88Z" transform="translate(-123.22 -75.08)"/></svg>