<svg id="Layer_1" data-name="Layer 1" xmlns="http://www.w3.org/2000/svg" viewBox="0 0 6657.05 1105.04"><defs><style>.cls-1{fill:blue;}</style></defs><path d="M473.56,82.29V1164H263.17c-95,0-132.42,23.3-132.42,23.3V126.18a43.89,43.89,0,0,1,43.89-43.89Z" transform="translate(-130.75 -82.29)"/><path class="cls-1" d="M906.32,82.29V405.85H683.47c-100.61,0-140.27,25.85-140.27,25.85V129a46.72,46.72,0,0,1,46.72-46.72Z" transform="translate(-130.75 -82.29)"/><path d="M1052.8,886.85V382.77h33.27V886.85Z" transform="translate(-130.75 -82.29)"/><path d="M1197.8,382.77l295.67,417V382.77h33.27V886.85h-13.18l-296.3-416.22V886.85h-33.9V382.77Z" transform="translate(-130.75 -82.29)"/><path d="M1989.39,382.77l-180.8,505.52h-36.4l-180.8-505.52h36.41l162.59,460.88L1953,382.77Z" transform="translate(-130.75 -82.29)"/><path d="M2081,615.37h257.38v35.29H2081V849.41H2358.5v37.45H2047.76V382.77H2351V419.5H2081V615.37Z" transform="translate(-130.75 -82.29)"/><path d="M2731.37,480c-32-59.05-83.49-67.69-133.08-68.41-51.48,0-133.08,21.6-133.08,102.25,0,64.09,60.26,79.22,134.33,95.06,84.75,18.72,172.63,36,172.63,144.74-.62,113.78-100.44,141.15-173.88,141.15-68.43,0-146.27-32.41-180.17-109.46L2448.26,768c27,61.2,96,91.45,150,91.45s140-17.28,140-106.58c.62-75.61-72.2-92.17-144.39-108-80.35-18-162.58-36.73-162.58-129.62-1.89-106.58,94.79-139.71,167-139.71,62.77,0,117.39,11.52,160.7,85.7Z" transform="translate(-130.75 -82.29)"/><path d="M2968.65,418.06H2809.83V383.49h351.54v34.57H3002.55V886.85h-33.9Z" transform="translate(-130.75 -82.29)"/><path d="M3649.75,635.53c-.63,132.51-74.07,260-221.59,260s-221.6-128.19-221.6-261.41c0-135.38,73.45-259.24,221.6-259.24S3650.38,499.43,3649.75,635.53Zm-409.92-.72c.63,113.78,63.4,224.68,188.32,224.68,125.55,0,189-110.9,189-224.68,0-116.66-62.78-223.95-189-223.95S3239.2,516,3239.83,634.81Z" transform="translate(-130.75 -82.29)"/><path d="M4081,886.85h-44.57L3884.52,696h-119.9V886.85h-33.9V382.77h193.35c95.41,0,143.75,78.5,144.38,157,.63,82.09-46.46,154.1-142.5,154.1ZM3764.62,659.3H3920.3c76.58,0,110.48-49.69,111.11-120.26.63-59-34.53-120.26-107.35-120.26H3764.62V659.3Z" transform="translate(-130.75 -82.29)"/><path d="M4441.94,480c-32-59.05-83.49-67.69-133.08-68.41-51.48,0-133.09,21.6-133.09,102.25,0,64.09,60.27,79.22,134.34,95.06,84.75,18.72,172.63,36,172.63,144.74-.63,113.78-100.44,141.15-173.88,141.15-68.43,0-146.27-32.41-180.17-109.46L4158.82,768c27,61.2,96.05,91.45,150,91.45s140-17.28,140-106.58c.63-75.61-72.19-92.17-144.38-108-80.35-18-162.59-36.73-162.59-129.62-1.88-106.58,94.79-139.71,167-139.71,62.78,0,117.39,11.52,160.71,85.7Z" transform="translate(-130.75 -82.29)"/><path d="M4965.47,886.85H4828.62L4726.3,723.39H4683V886.85H4558.7V382.77h214.68c112.37,0,170.75,82.81,170.75,173.55,0,61.93-18.83,114.5-92.91,151.94l114.25,170v8.64ZM4683,496.55v121h91.65c32.64,0,47.08-28.08,47.08-58.33,0-31.68-15.69-62.65-48.34-62.65Z" transform="translate(-130.75 -82.29)"/><path d="M5237.29,899.1c-143.76,0-244.2-95.78-244.2-264.29,0-165.62,100.44-264.28,244.2-264.28,144.38,0,244.19,96.5,244.19,264.28C5481.48,803.32,5381.67,899.1,5237.29,899.1Zm0-406.87c-70.94,0-119.9,59-119.9,142.58,0,84.26,49.59,142.59,119.9,142.59,72.81,0,119.9-59,119.9-142.59C5357.19,548.4,5310.1,492.23,5237.29,492.23Z" transform="translate(-130.75 -82.29)"/><path d="M5954.17,383.49V665.06c.63,149.06-78.47,232.6-207.16,232.6s-207.15-79.94-207.15-234V383.49h123.66V663.62c0,79.21,33.27,112.34,83.49,112.34s83.49-34.57,83.49-110.9V383.49Z" transform="translate(-130.75 -82.29)"/><path d="M6129.93,500.15H6001.87V382.77h380.42V500.15H6253.6V886.86H6129.93Z" transform="translate(-130.75 -82.29)"/><path d="M6787.8,886.85H6436.26V382.77H6779V502.31H6558.67v72h207.79V690.26H6558.67v76.33H6787.8Z" transform="translate(-130.75 -82.29)"/></svg>