<svg id="Layer_1" data-name="Layer 1" xmlns="http://www.w3.org/2000/svg" viewBox="0 0 6558.45 1003.02"><path d="M237.2,955.72Q167.65,920.4,129.38,855.53T91.11,705.23V494.81q0-85.41,38.27-150.28T237.2,244.06q69.54-35.58,161.27-35.59,75.91,0,139.7,28.22t106.61,79.89q42.83,51.68,58,119.7H575.84a164.72,164.72,0,0,0-38.57-64.06,187.45,187.45,0,0,0-63.49-43.52,192.93,192.93,0,0,0-75.31-15.3q-54.08,0-94.77,22.69a159.3,159.3,0,0,0-63.17,63.55q-22.47,40.88-22.47,95.17V705.23q0,53.79,22.47,94.93A157,157,0,0,0,303.7,863.7q40.69,22.41,94.77,22.41a204.32,204.32,0,0,0,75.62-14.24,177.73,177.73,0,0,0,63.18-42.18,160.34,160.34,0,0,0,38.57-66.46H702.78q-15.18,68-58.31,119.72T537.56,962.84q-63.76,28.23-139.09,28.21Q306.73,991.05,237.2,955.72Z" transform="translate(-91.11 -125.67)"/><path d="M866.9,215.86H990.81V983.14H866.9ZM921,556.51h301.28q35.24,0,62.56-14.76A103,103,0,0,0,1327,499.83q14.88-27.15,14.89-62.49T1327,374.84a103.51,103.51,0,0,0-41.9-41.92q-27-14.76-62.88-14.77H921V215.86h296.42q76.55,0,134.55,27.42t89.91,77.78q31.88,50.37,31.89,116.28t-32.21,116.28q-32.21,50.37-90.2,77.79t-133.94,27.42H921Zm240.55,78.58,123.31-24.26,226,372.31h-147Z" transform="translate(-91.11 -125.67)"/><path d="M1937.29,671.48V983.14H1813.36V671.48L1544.29,216.37h137.87l193.17,345.94,193.16-345.94h137.89Z" transform="translate(-91.11 -125.67)"/><path d="M2303.65,216.37h123.91V983.14H2303.65Zm63.77,367h282.45q40.08,0,70.47-16.35a115.19,115.19,0,0,0,47.08-46.41q16.68-30,16.7-69.07,0-39.54-16.7-69.61a117,117,0,0,0-47.08-46.67q-30.37-16.6-70.47-16.61H2367.42V216.37h278.2q79,0,139.1,29.28T2878,328.19q33.09,53.25,33.11,123.39T2878,574.72q-33.12,53-93.25,82t-139.1,29h-278.2Z" transform="translate(-91.11 -125.67)"/><path d="M3029.62,216.37h623.22V318.69H3029.62Zm249.66,62.77H3403.2v704H3279.28Z" transform="translate(-91.11 -125.67)"/><path d="M3879.49,956q-70.45-35.06-109-99.14t-38.56-148.45V491.12q0-84.37,38.56-148.43t109-99.14q70.44-35.07,162.79-35.08t162.78,35.08q70.45,35.06,109,99.14t38.58,148.43V708.39q0,84.38-38.58,148.45t-109,99.14q-70.46,35.07-162.78,35.07T3879.49,956Zm259.07-92.28q41.61-21.35,64.39-60.64t22.79-91V487.44q0-51.69-22.79-91t-64.39-60.64q-41.62-21.36-96.28-21.36T3946,335.83q-41.62,21.38-64.39,60.64t-22.79,91V712.08q0,51.7,22.79,91T3946,863.7q41.59,21.36,96.26,21.35T4138.56,863.7Z" transform="translate(-91.11 -125.67)"/><path d="M4556.28,1128.69H4437.83l410-1003h118.45Z" transform="translate(-91.11 -125.67)"/><path d="M5536.72,129.14v854h-224l-133-388.23V983.14h-214v-854h214l143,384.53V129.14Z" transform="translate(-91.11 -125.67)"/><path d="M5639.45,129.14h433v171h-177v162h158v162h-158v359h-256Z" transform="translate(-91.11 -125.67)"/><path d="M6649.56,129.14v171h-152v683h-256v-683h-151v-171Z" transform="translate(-91.11 -125.67)"/><text x="-91.11" y="-125.67"/><text x="-91.11" y="-125.67"/></svg>