<svg id="Layer_1" data-name="Layer 1" xmlns="http://www.w3.org/2000/svg" viewBox="0 0 6268.33 801.57"><path d="M254.2,254H322V944.86H254.2Zm33.25,0H558.39v92.18H287.45Zm0,307.89H521.82v92.18H287.45Z" transform="translate(-254.2 -159.44)"/><path d="M709.33,944.86H641.51V254h67.82Z" transform="translate(-254.2 -159.44)"/><path d="M829,254h61.5l236.37,534.06-8,12.35V254h67.16V944.38h-62.17l-235.71-526,8-12.36V944.38H829Z" transform="translate(-254.2 -159.44)"/><path d="M1430.74,254h57.85l178.19,690.86h-73.14l-134-557.35-134,557.35h-73.14Zm-96.08,447.11H1589v92.18H1334.66Z" transform="translate(-254.2 -159.44)"/><path d="M1739.92,254h61.5l236.37,534.06-8,12.35V254H2097V944.38H2034.8l-235.71-526,8-12.36V944.38h-67.15Z" transform="translate(-254.2 -159.44)"/><path d="M2286.63,920.15q-38.07-31.83-59-90.28t-20.94-135.41V504.87q0-77,20.94-135.41t59-90.52q38.05-32.07,88.26-32.07,41.57,0,76.47,25.42t58.34,72q23.45,46.56,31.75,107.85H2472q-6.31-32.29-21.11-57.73t-34.74-39.2q-19.95-13.77-41.23-13.78-29.58,0-51.86,20.44t-34.57,57.25q-12.3,36.83-12.3,85.76V694.46q0,48.46,12.3,85.52T2323,837.24q22.28,20.21,51.86,20.19,21.62,0,41.39-12.83t34.58-38q14.79-25.17,21.11-59.87h69.48q-8.31,61.31-31.91,107.86t-58.51,72Q2416.11,952,2374.89,952,2324.7,952,2286.63,920.15Z" transform="translate(-254.2 -159.44)"/><path d="M2699,944.86h-67.82V254H2699Z" transform="translate(-254.2 -159.44)"/><path d="M2943.72,254h57.84l178.19,690.86h-73.13l-134-557.35-134,557.35h-73.14Zm-96.08,447.11H3102v92.18H2847.64Z" transform="translate(-254.2 -159.44)"/><path d="M3252.89,254h67.82V944.86h-67.82Zm33.91,598.68h276.6v92.18H3286.8Z" transform="translate(-254.2 -159.44)"/><path d="M3611.27,175.6h233.38v154h-93.42V475.42h87.44V621.76h-87.44V790.91H3854v154H3611.27Z" transform="translate(-254.2 -159.44)"/><path d="M3894.19,175.6h104.72q101.39,0,137.13,13.3t54.36,43.72q18.62,30.4,23.27,67.7t4.65,146.59v269.4q0,103.59-6.81,138.51t-23.77,54.64A89.64,89.64,0,0,1,4145.85,937q-24.93,7.85-75.13,7.84H3894.19Zm140,131.61v506q30.24,0,37.23-17.34t7-94.32V402.72q0-52.26-2.32-67T4065.4,314.1Q4057.09,307.23,4034.15,307.21Z" transform="translate(-254.2 -159.44)"/><path d="M4588.67,175.6V689.71q0,87.42-4,122.82t-23.6,72.7q-19.62,37.31-51.7,56.54T4433.75,961q-48.21,0-85.11-22.8t-55.18-59.4a209.2,209.2,0,0,1-21.61-77.21q-3.33-40.62-3.33-170.81V175.6h140V752.42q0,50.37,3.82,64.39t15.46,14q13.29,0,17.12-15.44t3.82-72.93V175.6Z" transform="translate(-254.2 -159.44)"/><path d="M4969.66,510.58h-140V376.88q0-58.32-4.49-72.78t-19.78-14.47q-17.3,0-21.94,17.58t-4.66,76V740.55q0,56.07,4.66,73.17t20.94,17.1q15.63,0,20.45-17.14t4.82-80.5V636.49h140v30q0,119.43-11.8,169.39t-52.2,87.56Q4865.26,961,4806.09,961q-61.5,0-101.39-31.83T4651.84,841q-13-56.31-13-169.39V446.91q0-83.15,4-124.73a219.71,219.71,0,0,1,23.77-80.06q19.78-38.49,54.86-60.58t80.61-22.1q61.84,0,102.07,34.17T4957,278.79q12.63,51,12.63,158.71Z" transform="translate(-254.2 -159.44)"/><path d="M5261.8,175.6l80,769.26h-143l-7.51-138.27h-50.07l-8.41,138.27h-144.7L5059.5,175.6Zm-74.18,494.62Q5177,539.53,5166.3,347.13q-21.39,221-26.86,323.09Z" transform="translate(-254.2 -159.44)"/><path d="M5610,175.6v154h-83.12V944.86h-140V329.55H5304.1v-154Z" transform="translate(-254.2 -159.44)"/><path d="M5781.83,175.6V944.86h-140V175.6Z" transform="translate(-254.2 -159.44)"/><path d="M6157.83,626q0,115.94-3.82,164.16t-23.94,88.14q-20.11,39.92-54.35,61.29T5995.93,961q-43.22,0-77.63-20.19T5863,880.24Q5842,839.86,5838,792.34T5834,626V494.42q0-115.92,3.82-164.16t23.94-88.14q20.1-39.92,54.35-61.29t79.79-21.39q43.21,0,77.63,20.2t55.35,60.58q20.94,40.39,24.93,87.9t4,166.3Zm-140-252.78q0-53.68-4.16-68.66t-17.12-15q-11,0-16.79,12.12T5974,373.26V732.47q0,67,3.82,82.67t17.79,15.68q14.28,0,18.28-18.05t4-86Z" transform="translate(-254.2 -159.44)"/><path d="M6522.53,175.6V944.86H6399.86l-72.81-349.71V944.86H6210V175.6h117L6405.51,522V175.6Z" transform="translate(-254.2 -159.44)"/><text x="-254.2" y="-159.44"/></svg>