<svg id="Layer_1" data-name="Layer 1" xmlns="http://www.w3.org/2000/svg" viewBox="0 0 6822.05 1105.04"><defs><style>.cls-1{fill:#fff;}.cls-2{fill:blue;}</style></defs><path class="cls-1" d="M545.24,49V1130.69H334.85c-95,0-132.42,23.3-132.42,23.3V92.84A43.89,43.89,0,0,1,246.32,49Z" transform="translate(-202.43 -48.95)"/><path class="cls-2" d="M978,49V372.51H755.15c-100.61,0-140.27,25.84-140.27,25.84V95.67A46.72,46.72,0,0,1,661.6,49Z" transform="translate(-202.43 -48.95)"/><path class="cls-1" d="M1289.47,849.19V409.77h33.27V849.19Z" transform="translate(-202.43 -48.95)"/><path class="cls-1" d="M1434.48,409.77l295.66,363.46V409.77h33.28V849.19h-13.19L1453.94,486.35V849.19H1420V409.77Z" transform="translate(-202.43 -48.95)"/><path class="cls-1" d="M2226.06,409.77,2045.27,850.44h-36.41L1828.07,409.77h36.41l162.58,401.75,162.59-401.75Z" transform="translate(-202.43 -48.95)"/><path class="cls-1" d="M2317.71,612.53h257.37v30.76H2317.71V816.55h277.46v32.64H2284.44V409.77h303.2v32H2317.71Z" transform="translate(-202.43 -48.95)"/><path class="cls-1" d="M2968.05,494.51c-32-51.47-83.49-59-133.09-59.63-51.47,0-133.08,18.83-133.08,89.14,0,55.87,60.27,69.05,134.34,82.86,84.74,16.32,172.63,31.39,172.63,126.18-.63,99.18-100.44,123-173.89,123-68.42,0-146.26-28.24-180.16-95.41l30.13-15.07c27,53.36,96.05,79.73,150,79.73s140-15.07,140-92.91c.63-65.91-72.19-80.35-144.38-94.16-80.35-15.7-162.59-32-162.59-113-1.88-92.9,94.79-121.78,167-121.78,62.78,0,117.39,10,160.71,74.7Z" transform="translate(-202.43 -48.95)"/><path class="cls-1" d="M3205.33,440.53H3046.51V410.39h351.54v30.14H3239.23V849.19h-33.9V440.53Z" transform="translate(-202.43 -48.95)"/><path class="cls-1" d="M3886.42,630.11c-.63,115.5-74.07,226.61-221.59,226.61S3443.23,745,3443.23,628.85c0-118,73.45-226,221.6-226S3887.05,511.46,3886.42,630.11Zm-409.92-.63c.63,99.18,63.41,195.85,188.33,195.85,125.55,0,189-96.67,189-195.85,0-101.7-62.77-195.23-189-195.23S3475.88,525.9,3476.5,629.48Z" transform="translate(-202.43 -48.95)"/><path class="cls-1" d="M4317.67,849.19H4273.1L4121.19,682.84h-119.9V849.19h-33.9V409.77h193.35c95.42,0,143.75,68.42,144.38,136.85.63,71.56-46.45,134.33-142.5,134.33ZM4001.29,650.82H4157c76.59,0,110.48-43.31,111.11-104.83.63-51.48-34.52-104.84-107.34-104.84H4001.29V650.82Z" transform="translate(-202.43 -48.95)"/><path class="cls-1" d="M4678.61,494.51c-32-51.47-83.49-59-133.08-59.63-51.48,0-133.08,18.83-133.08,89.14,0,55.87,60.26,69.05,134.33,82.86,84.75,16.32,172.64,31.39,172.64,126.18-.63,99.18-100.44,123-173.89,123-68.43,0-146.27-28.24-180.16-95.41l30.13-15.07c27,53.36,96,79.73,150,79.73s140-15.07,140-92.91c.62-65.91-72.19-80.35-144.39-94.16-80.35-15.7-162.58-32-162.58-113-1.89-92.9,94.79-121.78,167-121.78,62.77,0,117.39,10,160.7,74.7Z" transform="translate(-202.43 -48.95)"/><path class="cls-1" d="M5202.15,849.19H5065.3L4963,706.69h-43.32v142.5H4795.37V409.77h214.69c112.36,0,170.74,72.19,170.74,151.28,0,54-18.83,99.82-92.9,132.46l114.25,148.15ZM4919.66,509V614.41h91.65c32.64,0,47.08-24.48,47.08-50.85,0-27.62-15.69-54.61-48.33-54.61Z" transform="translate(-202.43 -48.95)"/><path class="cls-1" d="M5474,859.86c-143.75,0-244.19-83.49-244.19-230.38,0-144.38,100.44-230.39,244.19-230.39,144.38,0,244.19,84.12,244.19,230.39C5718.15,776.37,5618.34,859.86,5474,859.86Zm0-354.68c-70.94,0-119.9,51.48-119.9,124.3,0,73.44,49.59,124.29,119.9,124.29,72.82,0,119.9-51.47,119.9-124.29C5593.86,554.15,5546.78,505.18,5474,505.18Z" transform="translate(-202.43 -48.95)"/><path class="cls-1" d="M6190.84,410.39V655.84c.63,129.95-78.47,202.77-207.15,202.77s-207.16-69.68-207.16-204V410.39H5900.2v244.2c0,69,33.27,97.93,83.49,97.93s83.49-30.14,83.49-96.68V410.39Z" transform="translate(-202.43 -48.95)"/><path class="cls-1" d="M6366.61,512.09H6238.55V409.77H6619V512.09H6490.27v337.1H6366.61Z" transform="translate(-202.43 -48.95)"/><path class="cls-1" d="M7024.47,849.19H6672.94V409.77h342.75V514H6795.35v62.78h207.78V677.81H6795.35v66.54h229.12Z" transform="translate(-202.43 -48.95)"/></svg>