<svg id="Layer_1" data-name="Layer 1" xmlns="http://www.w3.org/2000/svg" viewBox="0 0 6464 890"><path d="M112.59,215.86h127.6V983.14H112.59Zm55.66,340.65H478.5q36.28,0,64.42-14.76a104.48,104.48,0,0,0,43.47-41.92q15.33-27.15,15.33-62.49t-15.33-62.5a105,105,0,0,0-43.16-41.92q-27.84-14.76-64.73-14.76H168.25V215.86H473.5q78.79,0,138.55,27.42t92.56,77.78q32.83,50.37,32.84,116.28T704.3,553.62Q671.15,604,611.42,631.41T473.5,658.83H168.25ZM416,635.09l127-24.26L775.61,983.14H624.23Z" transform="translate(-112.59 -111.14)"/><path d="M947.5,216.37h127.59V983.14H947.5Zm61.92,0H1531.7V318.69H1009.42Zm0,334.88h453.47v102.3H1009.42Zm0,329.58H1531.7V983.14H1009.42Z" transform="translate(-112.59 -111.14)"/><path d="M1960.67,216.37H2069.5l335.26,766.77h-137.6L2015.09,364.56,1763,983.14h-137.6ZM1779.91,712.61h478.5V814.92h-478.5Z" transform="translate(-112.59 -111.14)"/><path d="M2542.26,216.37h127.59V983.14H2542.26Zm63.8,664.46h520.4V983.14h-520.4Z" transform="translate(-112.59 -111.14)"/><path d="M3216.88,129.14h438v171h-175v162h164v162h-164v188h193v171h-456Z" transform="translate(-112.59 -111.14)"/><path d="M4306.09,387.14h-245V324.26q0-44-9.29-56.06t-31-12.06q-23.55,0-35.64,16.23t-12.08,49.22q0,42.42,14,63.89,13.41,21.48,74.5,52.32,175.2,88.82,220.83,145.25t45.62,181.89q0,91.21-25.31,134.45T4205,971.87q-72.49,29.25-168.72,29.27-105.6,0-180.28-33.77t-97.8-86q-23.1-52.24-23.11-148.28V677.14h245V780.86q0,47.91,10.24,61.59t36.28,13.69q26,0,38.77-17.34t12.71-51.55q0-75.19-24.48-98.33-25.12-23.13-123-77.7-97.95-55.08-129.8-79.86T3748,462.83q-20.94-43.75-20.93-111.78,0-98.07,29.68-143.43t95.87-70.9q66.2-25.57,159.89-25.58,102.42,0,174.58,27.92t95.56,70.31q23.41,42.44,23.42,144.07Z" transform="translate(-112.59 -111.14)"/><path d="M4940.39,129.14v171h-156v683h-263v-683h-155v-171Z" transform="translate(-112.59 -111.14)"/><path d="M5405.23,129.14l151.25,854H5286.73l-14.09-154h-93.86l-15.55,154H4890.48l134.25-854Zm-139.14,549q-19.22-145-40.11-359-39.49,246-50.27,359.05Z" transform="translate(-112.59 -111.14)"/><path d="M6059.22,129.14v171h-156v683h-263v-683h-155v-171Z" transform="translate(-112.59 -111.14)"/><path d="M6120.6,129.14h438v171h-175v162h164v162h-164v188h193v171h-456Z" transform="translate(-112.59 -111.14)"/><text x="-112.59" y="-111.14"/><text x="-112.59" y="-111.14"/></svg>