<svg id="Layer_1" data-name="Layer 1" xmlns="http://www.w3.org/2000/svg" viewBox="0 0 6603 890"><path d="M-12.51,216.37H527.56V318.69H-12.51Zm216.35,62.77H311.21v704H203.84Z" transform="translate(12.51 -111.14)"/><path d="M633.05,215.86H740.43V983.14H633.05Zm46.84,340.65H941q30.53,0,54.22-14.76t36.58-41.92q12.88-27.15,12.89-62.49t-12.89-62.5q-12.88-27.13-36.31-41.92T941,318.16H679.89V215.86H936.75q66.33,0,116.6,27.42a192.25,192.25,0,0,1,77.9,77.78q27.64,50.37,27.64,116.28T1131,553.62a193.84,193.84,0,0,1-78.17,77.79q-50.28,27.42-116.07,27.42H679.89Zm208.44,78.58,106.86-24.26L1191,983.14H1063.61Z" transform="translate(12.51 -111.14)"/><path d="M1518.15,216.37h91.59l282.13,766.77h-115.8L1564,364.56,1351.82,983.14H1236ZM1366,712.61H1768.7V814.92H1366Z" transform="translate(12.51 -111.14)"/><path d="M2008,216.37h107.37V983.14H2008Zm72.64,664.46h173.17q84.75,0,131.33-44t46.57-124.19V486.91q0-80.16-46.57-124.19t-131.33-44H2080.61V216.37h170q92.12,0,157.38,32.18t99.48,93.87q34.21,61.69,34.22,148.7V708.39q0,87-34.22,148.72T2407.73,951q-65.54,32.17-157.64,32.17H2080.61Z" transform="translate(12.51 -111.14)"/><path d="M2705.16,216.37h107.38V983.14H2705.16Zm52.11,0h439.52V318.69H2757.27Zm0,334.88h381.61v102.3H2757.27Zm0,329.58h439.52V983.14H2757.27Z" transform="translate(12.51 -111.14)"/><path d="M3768,387.14H3562V324.26q0-44-7.83-56.06t-26.05-12.06q-19.8,0-30,16.2T3488,321.47q0,42.33,12,63.75,11.49,21.42,62.85,52.34,147.22,89.07,185.68,145.49T3787,764.94q0,91.21-21.3,134.45t-82.3,72.48q-61,29.25-142,29.27-88.87,0-151.7-33.77t-82.28-86Q3288,829.12,3288,733.08V677.14h206V780.86q0,47.91,8.56,61.59t30.36,13.69q21.79,0,32.43-17.38T3576,787.17q0-75.28-20.57-98.44-21.09-23.15-103.4-77.62-82.34-55-109.1-79.75t-44.36-68.53Q3281,419.08,3281,351.05q0-98.07,24.95-143.43t80.64-70.9q55.68-25.57,134.48-25.58,86.16,0,146.85,27.92t80.37,70.31q19.7,42.44,19.71,144.07Z" transform="translate(12.51 -111.14)"/><path d="M4303.61,129.14v171h-132v683h-222v-683h-131v-171Z" transform="translate(12.51 -111.14)"/><path d="M4860.71,629.2q0,128.74-6.07,182.28a204.17,204.17,0,0,1-37.92,97.86q-31.87,44.32-86.11,68.07t-126.4,23.73q-68.49,0-123-22.42t-87.7-67.27q-33.19-44.84-39.5-97.59t-6.31-184.66V483.08q0-128.73,6-182.28a204.29,204.29,0,0,1,37.92-97.86q31.88-44.3,86.13-68.05t126.41-23.75q68.46,0,123,22.42t87.69,67.27q33.18,44.85,39.5,97.61t6.33,184.64Zm-222-280.34q0-59.53-6.54-76.13t-26.92-16.59q-17.25,0-26.4,13.44t-9.14,79.28V747.09q0,74.29,6,91.67t28,17.38q22.46,0,28.73-20t6.29-95.34Z" transform="translate(12.51 -111.14)"/><path d="M5461,501.14H5239V352.87q0-64.64-7.06-80.68t-31.11-16.05q-27.18,0-34.51,19.5T5159,359.92V756.05q0,62.18,7.32,81.14t32.95,18.95q24.55,0,32.16-19.06t7.57-89.47V640.14h222v33.34q0,132.87-18.7,188.44t-82.67,97.41q-64,41.79-157.74,41.81-97.42,0-160.62-35.34t-83.73-97.86Q4937,805.42,4937,679.86V430.31q0-92.3,6.32-138.47t37.65-88.9q31.34-42.74,86.89-67.27t127.72-24.53q97.95,0,161.67,38t83.74,94.6q20,56.67,20,176.29Z" transform="translate(12.51 -111.14)"/><path d="M6068.6,129.14,5942.1,514.73l138.5,468.41h-228l-90.5-366.08V983.14h-222v-854h222V460.92l99.5-331.78Z" transform="translate(12.51 -111.14)"/><path d="M6571.5,387.14h-206V324.26q0-44-7.83-56.06t-26.05-12.06q-19.8,0-30,16.2t-10.15,49.13q0,42.33,12,63.75,11.49,21.42,62.85,52.34,147.22,89.07,185.68,145.49t38.43,181.89q0,91.21-21.3,134.45t-82.3,72.48q-61,29.25-142,29.27-88.87,0-151.7-33.77t-82.28-86q-19.46-52.24-19.45-148.28V677.14h206V780.86q0,47.91,8.56,61.59t30.36,13.69q21.8,0,32.43-17.38t10.65-51.59q0-75.28-20.57-98.44-21.09-23.15-103.4-77.62-82.33-55-109.1-79.75t-44.36-68.53q-17.58-43.75-17.57-111.78,0-98.07,24.95-143.43t80.64-70.9q55.68-25.57,134.48-25.58,86.16,0,146.85,27.92t80.37,70.31q19.7,42.44,19.71,144.07Z" transform="translate(12.51 -111.14)"/><text x="12.51" y="-111.14"/><text x="12.51" y="-111.14"/></svg>